<svg width="775" height="160" viewBox="0 0 775 160" fill="none" xmlns="http://www.w3.org/2000/svg">
<path d="M192.359 86.2626C178.88 82.7926 168.201 76.3731 168.201 62.4931C168.201 46.7046 181.856 36.8151 200.937 36.8151C223.345 36.8151 234.549 51.0421 234.899 66.3101H221.419C220.894 55.9001 214.067 48.4396 200.412 48.4396C189.558 48.4396 181.856 52.7771 181.856 61.1051C181.856 68.0451 187.458 71.6886 195.51 73.5971L210.391 77.2406C224.045 80.5371 234.724 87.1301 234.724 101.357C234.724 117.666 220.719 127.035 201.638 127.035C178.529 127.035 166.975 112.808 166.45 97.5401H179.93C180.455 107.95 188.333 115.411 201.988 115.411C213.192 115.411 221.069 110.9 221.069 102.398C221.069 95.6316 215.642 92.1616 207.415 90.0796L192.359 86.2626Z" fill="url(#paint0_linear_112_2437)"/>
<path d="M246.877 125.3V38.5501H260.882V53.2976C267.009 43.7551 275.937 36.8151 288.892 36.8151C306.398 36.8151 319.002 49.3071 319.002 70.3006V125.3H304.998V70.8211C304.998 56.4206 297.12 48.9601 284.34 48.9601C271.211 48.9601 260.882 56.7676 260.882 75.1586V125.3H246.877Z" fill="url(#paint1_linear_112_2437)"/>
<path d="M357.385 127.035C340.404 127.035 330.6 117.319 330.6 104.307C330.6 89.7326 342.855 81.5781 356.509 78.2816L385.57 71.3416V68.5656C385.57 53.8181 378.042 48.6131 365.963 48.6131C352.658 48.6131 345.48 54.8591 344.955 67.6981H330.95C331.826 47.5721 347.056 36.8151 366.663 36.8151C388.02 36.8151 399.574 49.8276 399.574 69.9536V125.3H385.57V110.726C378.917 121.136 370.339 127.035 357.385 127.035ZM344.605 102.919C344.605 111.941 351.258 116.105 360.886 116.105C374.366 116.105 385.57 107.777 385.57 92.6821V82.0986L360.011 88.1711C349.682 90.6001 344.605 94.9376 344.605 102.919Z" fill="url(#paint2_linear_112_2437)"/>
<path d="M413.404 160V38.5501H427.409V54.5121C434.237 42.8876 443.69 36.8151 456.995 36.8151C479.227 36.8151 495.158 53.6446 495.158 81.9251C495.158 110.206 479.227 127.035 456.995 127.035C443.69 127.035 434.237 120.963 427.409 109.338V160H413.404ZM427.409 86.2626C427.409 103.613 437.038 115.064 454.019 115.064C470.299 115.064 480.978 104.654 480.978 84.5276V79.3226C480.978 59.1966 470.299 48.7866 454.019 48.7866C437.038 48.7866 427.409 60.2376 427.409 77.5876V86.2626Z" fill="url(#paint3_linear_112_2437)"/>
<path d="M505.558 125.3V38.5501H519.563V125.3H505.558ZM504.857 20.6796H520.263V4.71762H504.857V20.6796Z" fill="url(#paint4_linear_112_2437)"/>
<path d="M533.944 125.3V38.5501H547.948V53.2976C554.076 43.7551 563.004 36.8151 575.958 36.8151C593.464 36.8151 606.069 49.3071 606.069 70.3006V125.3H592.064V70.8211C592.064 56.4206 584.186 48.9601 571.407 48.9601C558.277 48.9601 547.948 56.7676 547.948 75.1586V125.3H533.944Z" fill="url(#paint5_linear_112_2437)"/>
<path d="M623.794 21.5471C623.794 8.53462 630.446 0.380127 644.801 0.380127H656.355V12.8721H645.501C639.899 12.8721 637.799 14.6071 637.799 20.8531V38.5501H654.605V50.6951H637.799V125.3H623.794V50.6951H611.014V38.5501H623.794V21.5471Z" fill="url(#paint6_linear_112_2437)"/>
<path d="M660.979 125.3V38.5501H674.984V51.7361C680.236 40.9791 688.989 37.6826 699.318 37.6826H702.294V51.2156H692.315C680.586 51.2156 674.984 57.4616 674.984 69.4331V125.3H660.979Z" fill="url(#paint7_linear_112_2437)"/>
<path d="M732.337 127.035C715.356 127.035 705.553 117.319 705.553 104.307C705.553 89.7326 717.807 81.5781 731.462 78.2816L760.522 71.3416V68.5656C760.522 53.8181 752.995 48.6131 740.915 48.6131C727.611 48.6131 720.433 54.8591 719.908 67.6981H705.903C706.778 47.5721 722.009 36.8151 741.616 36.8151C762.973 36.8151 774.527 49.8276 774.527 69.9536V125.3H760.522V110.726C753.87 121.136 745.292 127.035 732.337 127.035ZM719.558 102.919C719.558 111.941 726.21 116.105 735.839 116.105C749.318 116.105 760.522 107.777 760.522 92.6821V82.0986L734.963 88.1711C724.635 90.6001 719.558 94.9376 719.558 102.919Z" fill="url(#paint8_linear_112_2437)"/>
<path d="M20.3561 27.3119C18.8217 28.8463 17.2873 30.3807 15.753 31.915C10.843 36.5182 5.93295 41.4282 2.86419 47.5657C-0.818318 54.6238 0.102282 62.2957 0.102282 69.9676C0.102283 81.6288 0.102284 110.782 0.102285 127.967L15.753 116.306C15.753 95.1314 15.753 61.9888 15.753 46.6451C15.753 40.2007 16.9805 34.6769 20.3561 29.46C20.663 28.5394 20.663 27.6188 20.3561 27.3119Z" fill="url(#paint9_linear_112_2437)"/>
<path d="M45.5198 14.4228C43.9854 15.9572 42.451 17.4916 40.9166 19.026C36.0066 23.6291 31.0966 28.5391 28.0279 34.6766C24.3453 41.7347 25.266 49.4066 25.266 57.0785C25.266 67.2054 25.266 91.4485 25.266 108.634L40.9166 96.9723C40.9166 76.1047 40.9166 47.5654 40.9166 33.4491C40.9166 27.0047 42.1441 21.4809 45.5198 16.2641C45.8266 15.6503 45.8266 15.0366 45.5198 14.4228Z" fill="url(#paint10_linear_112_2437)"/>
<path d="M70.07 0.000110361C68.5356 1.53449 67.0012 3.06886 65.4668 4.60324C60.5568 9.20637 55.6468 14.1163 52.578 20.2539C48.8955 27.312 49.8162 34.9839 49.8162 42.6558C49.8162 52.1689 49.8162 73.0364 49.8162 89.9146L65.4668 78.2533C65.4668 57.9996 65.4668 32.222 65.4668 19.3332C65.4668 12.8888 66.6943 7.36511 70.07 2.14823C70.3769 1.2276 70.6837 0.613861 70.07 0.000110361Z" fill="url(#paint11_linear_112_2437)"/>
<path d="M111.498 129.195C113.033 127.66 114.567 126.126 116.101 124.591C121.011 119.988 125.921 115.078 128.99 108.941C132.673 101.883 131.752 94.2108 131.752 86.5389L131.752 28.5394L116.101 40.2007C116.101 61.3751 116.101 94.5177 116.101 109.861C116.101 116.306 114.874 121.83 111.498 127.046C111.191 127.967 111.191 128.581 111.498 129.195Z" fill="url(#paint12_linear_112_2437)"/>
<path d="M86.3344 142.083C87.8688 140.549 89.4032 139.014 90.9375 137.48C95.8476 132.877 100.758 127.967 103.826 121.83C107.509 114.771 106.588 107.099 106.588 99.4276L106.588 47.8725L90.9375 59.5338C90.9375 80.4013 90.9375 108.941 90.9375 123.057C90.9375 129.501 89.71 135.025 86.3344 140.242C86.0275 140.856 86.0275 141.47 86.3344 142.083Z" fill="url(#paint13_linear_112_2437)"/>
<path d="M61.4772 156.199C63.0116 154.665 64.546 153.13 66.0804 151.596C70.9904 146.993 75.9004 142.083 78.9692 135.945C82.6517 128.887 81.731 121.215 81.731 113.544L81.731 66.2847L66.0804 77.946C66.0804 98.1998 66.0804 123.977 66.0804 136.866C66.0804 143.31 64.8529 148.834 61.4772 154.051C61.1704 154.972 61.1704 155.585 61.4772 156.199Z" fill="url(#paint14_linear_112_2437)"/>
<defs>
<linearGradient id="paint0_linear_112_2437" x1="470.489" y1="0.380127" x2="470.489" y2="160" gradientUnits="userSpaceOnUse">
<stop stop-color="#239CFF"/>
<stop offset="1" stop-color="#005BE3"/>
</linearGradient>
<linearGradient id="paint1_linear_112_2437" x1="470.489" y1="0.380127" x2="470.489" y2="160" gradientUnits="userSpaceOnUse">
<stop stop-color="#239CFF"/>
<stop offset="1" stop-color="#005BE3"/>
</linearGradient>
<linearGradient id="paint2_linear_112_2437" x1="470.489" y1="0.380127" x2="470.489" y2="160" gradientUnits="userSpaceOnUse">
<stop stop-color="#239CFF"/>
<stop offset="1" stop-color="#005BE3"/>
</linearGradient>
<linearGradient id="paint3_linear_112_2437" x1="470.489" y1="0.380127" x2="470.489" y2="160" gradientUnits="userSpaceOnUse">
<stop stop-color="#239CFF"/>
<stop offset="1" stop-color="#005BE3"/>
</linearGradient>
<linearGradient id="paint4_linear_112_2437" x1="470.489" y1="0.380127" x2="470.489" y2="160" gradientUnits="userSpaceOnUse">
<stop stop-color="#239CFF"/>
<stop offset="1" stop-color="#005BE3"/>
</linearGradient>
<linearGradient id="paint5_linear_112_2437" x1="470.489" y1="0.380127" x2="470.489" y2="160" gradientUnits="userSpaceOnUse">
<stop stop-color="#239CFF"/>
<stop offset="1" stop-color="#005BE3"/>
</linearGradient>
<linearGradient id="paint6_linear_112_2437" x1="470.489" y1="0.380127" x2="470.489" y2="160" gradientUnits="userSpaceOnUse">
<stop stop-color="#239CFF"/>
<stop offset="1" stop-color="#005BE3"/>
</linearGradient>
<linearGradient id="paint7_linear_112_2437" x1="470.489" y1="0.380127" x2="470.489" y2="160" gradientUnits="userSpaceOnUse">
<stop stop-color="#239CFF"/>
<stop offset="1" stop-color="#005BE3"/>
</linearGradient>
<linearGradient id="paint8_linear_112_2437" x1="470.489" y1="0.380127" x2="470.489" y2="160" gradientUnits="userSpaceOnUse">
<stop stop-color="#239CFF"/>
<stop offset="1" stop-color="#005BE3"/>
</linearGradient>
<linearGradient id="paint9_linear_112_2437" x1="-2.19989e-06" y1="77.6395" x2="20.5863" y2="77.6395" gradientUnits="userSpaceOnUse">
<stop stop-color="#239CFF"/>
<stop offset="1" stop-color="#005BE3"/>
</linearGradient>
<linearGradient id="paint10_linear_112_2437" x1="25.1637" y1="61.5282" x2="45.7499" y2="61.5282" gradientUnits="userSpaceOnUse">
<stop stop-color="#239CFF"/>
<stop offset="1" stop-color="#005BE3"/>
</linearGradient>
<linearGradient id="paint11_linear_112_2437" x1="49.7139" y1="44.9573" x2="70.4243" y2="44.9573" gradientUnits="userSpaceOnUse">
<stop stop-color="#239CFF"/>
<stop offset="1" stop-color="#005BE3"/>
</linearGradient>
<linearGradient id="paint12_linear_112_2437" x1="111.268" y1="78.867" x2="131.854" y2="78.867" gradientUnits="userSpaceOnUse">
<stop stop-color="#239CFF"/>
<stop offset="1" stop-color="#005BE3"/>
</linearGradient>
<linearGradient id="paint13_linear_112_2437" x1="86.1042" y1="94.9779" x2="106.691" y2="94.9779" gradientUnits="userSpaceOnUse">
<stop stop-color="#239CFF"/>
<stop offset="1" stop-color="#005BE3"/>
</linearGradient>
<linearGradient id="paint14_linear_112_2437" x1="61.2471" y1="111.242" x2="81.8333" y2="111.242" gradientUnits="userSpaceOnUse">
<stop stop-color="#239CFF"/>
<stop offset="1" stop-color="#005BE3"/>
</linearGradient>
</defs>
</svg>
